<svg width="48" height="48" viewBox="0 0 48 48" fill="none" xmlns="http://www.w3.org/2000/svg">
<path d="M24 0C10.7621 0 0 10.7621 0 24C0 37.2379 10.7621 48 24 48C37.2379 48 48 37.2379 48 24C48 10.7621 37.2379 0 24 0ZM24 45.7263C12.0253 45.7263 2.27368 35.9747 2.27368 24C2.27368 12.0253 12.0253 2.27368 24 2.27368C35.9747 2.27368 45.7263 11.9747 45.7263 24C45.7263 35.9747 35.9747 45.7263 24 45.7263Z" fill="#F17900"/>
<path d="M27.4357 23.4441C27.7389 24.5557 31.0736 24.7578 33.0441 24.7578C34.6105 24.7578 38.501 24.6062 40.6736 23.2925C41.9368 22.4841 42.442 21.1199 42.0378 19.503C41.1284 15.9662 39.3599 15.4609 38.3494 15.4609C37.7936 15.4609 37.3894 15.663 37.3389 15.663C35.6715 16.3199 33.0441 18.0378 31.2757 19.3515C27.1326 22.383 27.3347 23.0904 27.4357 23.4441Z" fill="#F17900"/>
<path d="M40.6231 26.9304C38.8042 25.8188 35.52 25.7178 34.1557 25.7178C33.4484 25.7178 29.8105 25.7683 29.5578 26.6778C29.2042 27.9409 36.0757 32.4378 37.9452 33.1957C37.9957 33.1957 38.2989 33.3472 38.7536 33.3472C39.5621 33.3472 40.9768 32.8925 41.6842 30.0125C42.0378 28.6483 41.6336 27.5367 40.6231 26.9304Z" fill="#F17900"/>
<path d="M20.4631 24.7073C20.1599 23.5957 16.1683 23.4946 14.9557 23.4946C13.3894 23.4946 9.44832 23.6462 7.32621 24.9599C6.11358 25.7178 5.60832 27.0315 6.01253 28.6483C6.87148 32.1346 8.6399 32.6399 9.54937 32.6399C10.1052 32.6399 10.4588 32.4883 10.5094 32.4883C12.9346 31.5283 20.8673 26.2736 20.4631 24.7073Z" fill="#F17900"/>
<path d="M7.02326 21.5243C8.84221 22.6358 12.1264 22.7369 13.4906 22.7369C14.198 22.7369 17.8359 22.6864 18.0885 21.7769C18.4422 20.5137 11.5706 16.0169 9.70116 15.259C9.65063 15.259 9.34747 15.1074 8.89274 15.1074C8.08432 15.1074 6.66958 15.5622 5.96221 18.4422C5.60853 19.8064 6.01274 20.9179 7.02326 21.5243Z" fill="#F17900"/>
<path d="M25.4653 21.2715C25.5663 21.322 25.6674 21.322 25.819 21.322C27.5369 21.322 35.6211 15.2083 36.1769 12.581C36.2779 12.2778 36.7326 9.75151 32.3874 7.67993C30.7705 6.92203 29.4063 6.51782 28.2442 6.51782C26.5263 6.51782 25.8695 7.4273 25.7179 7.6294C24.2526 9.49888 24.2021 17.3305 24.8084 20.0589C24.96 20.7662 25.1621 21.1199 25.4653 21.2715Z" fill="#F17900"/>
<path d="M22.4842 21.5747C22.6357 21.5747 22.7873 21.5242 22.8884 21.4736C23.1915 21.3221 23.3431 20.9179 23.4947 20.2105C23.9494 17.381 23.2926 9.44838 21.6757 7.62943C21.5242 7.42733 20.9178 6.66943 19.4021 6.66943C18.1894 6.66943 16.6736 7.1747 14.9557 8.1347C10.661 10.56 11.3178 13.0863 11.4694 13.3894C12.0757 15.9663 20.6147 21.5747 22.4842 21.5747Z" fill="#F17900"/>
<path d="M25.9199 27.082C25.8189 27.082 25.6673 27.082 25.5662 27.1326C25.2631 27.2841 25.061 27.6378 24.9094 28.2947C24.3031 30.9726 24.4041 38.501 25.8189 40.3705C25.9705 40.6231 26.5768 41.482 28.2441 41.482C29.3557 41.482 30.7199 41.0778 32.2862 40.3705C36.5305 38.3494 36.0757 35.9241 35.9747 35.5705C35.4694 32.9936 27.5873 27.082 25.9199 27.082Z" fill="#F17900"/>
<path d="M22.9388 26.5263C22.8378 26.4758 22.6862 26.4253 22.5346 26.4253C20.6652 26.4253 12.3283 32.3369 11.722 34.9642C11.6209 35.2674 11.0146 37.8442 15.4104 40.1179C17.1283 41.0274 18.5936 41.4316 19.7557 41.4316C21.3725 41.4316 22.0294 40.6232 22.1809 40.3706C23.7473 38.5011 24.1009 30.5685 23.5452 27.739C23.3936 27.0821 23.242 26.6779 22.9388 26.5263Z" fill="#F17900"/>
</svg>
